{"title":"White Squall (1996) BDRip 720p MediaClub (RUS. ENG)","uid":9826138,"size":6644505112,"categoryP":"video","categoryS":"hd___movies","magnet":"?xt=urn:btih:7252410de6b4545c79404e5189036555df7b9d07&amp;dn=White+Squall+%281996%29+BDRip+720p+MediaClub+%28RUS.+ENG%29+&amp;tr=udp%3A%2F%2Ftracker.openbittorrent.com%3A80&amp;tr=udp%3A%2F%2Fopen.demonii.com%3A1337&amp;tr=udp%3A%2F%2Ftracker.coppersurfer.tk%3A6969&amp;tr=udp%3A%2F%2Fexodus.desync.com%3A6969","seeders":2,"leechers":1,"uploader":"neni69","files":1,"time":1395781841,"description":" &lt;a href=&quot; http://mediaclub.tv/&quot; rel=&quot;nofollow&quot; target=&quot;_NEW&quot;&gt; http://mediaclub.tv/&lt;/a&gt;   Welcome to MediaClub\n\n===================================================================\n\nUnique ID                      : 210829391636837149328202701525717404736 (0x9E9C438BBDC51F888902A5D94410CC40)\nComplete name                  : E:MCBeliy.schkval.1996.x264.BDRip(720p)-MediaClubBeliy.schkval.1996.x264.BDRip(720p)-MediaClub.mkv\nFormat                         : Matroska\nFormat version                 : Version 4 / Version 2\nFile size                      : 6.19 GiB\nDuration                       : 2h 8mn\nOverall bit rate               : 6 870 Kbps\nMovie name                     : -= Release MediaClub =-\nEncoded date                   : UTC 2014-02-27 17:56:14\nWriting application            : mkvmerge v6.4.1 ('Omega Point') built on Sep 16 2013 22:05:10\nWriting library                : libebml v1.3.0 + libmatroska v1.4.1\n\nVideo\nID                             : 1\nFormat                         : AVC\nFormat/Info                    : Advanced Video Codec\nFormat profile                 : &lt;a class=&quot;__cf_email__&quot; href=&quot;/cdn-cgi/l/email-protection&quot; data-cfemail=&quot;6a22030d022a265e445b&quot;&gt;[email&amp;#160;protected]&lt;/a&gt;&lt;script cf-hash='f9e31' type=&quot;text/javascript&quot;&gt;\n/* &lt;![CDATA[ */!function(){try{var t=&quot;currentScript&quot;in document?document.currentScript:function(){for(var t=document.getElementsByTagName(&quot;script&quot;),e=t.length;e--;)if(t[e].getAttribute(&quot;cf-hash&quot;))return t[e]}();if(t&amp;&amp;t.previousSibling){var e,r,n,i,c=t.previousSibling,a=c.getAttribute(&quot;data-cfemail&quot;);if(a){for(e=&quot;&quot;,r=parseInt(a.substr(0,2),16),n=2;a.length-n;n+=2)i=parseInt(a.substr(n,2),16)^r,e+=String.fromCharCode(i);e=document.createTextNode(e),c.parentNode.replaceChild(e,c)}}}catch(u){}}();/* ]]&gt; */&lt;/script&gt;\nFormat settings, CABAC         : Yes\nFormat settings, ReFrames      : 8 frames\nCodec ID                       : V_MPEG4/ISO/AVC\nDuration                       : 2h 8mn\nBit rate                       : 5 218 Kbps\nWidth                          : 1 280 pixels\nHeight                         : 548 pixels\nDisplay aspect ratio           : 2.35:1\nFrame rate                     : 23.976 fps\nColor space                    : YUV\nChroma subsampling             : 4:2:0\nBit depth                      : 8 bits\nScan type                      : Progressive\nBits/(Pixel*Frame)             : 0.310\nStream size                    : 4.58 GiB (74%)\nTitle                          : Beliy.schkval.1996.x264.BDRip(720p)-neni\nWriting library                : x264 core 130 r2273 b3065e6\nEncoding settings              : cabac=1 / ref=8 / deblock=1:-3:-3 / analyse=0x3:0x113 / me=umh / subme=11 / psy=1 / psy_rd=1.00:0.15 / mixed_ref=1 / me_range=48 / chroma_me=1 / trellis=2 / 8x8dct=1 / cqm=0 / deadzone=21,11 / fast_pskip=0 / chroma_qp_offset=-3 / threads=9 / lookahead_threads=1 / sliced_threads=0 / nr=0 / decimate=0 / interlaced=0 / bluray_compat=0 / constrained_intra=0 / bframes=8 / b_pyramid=2 / b_adapt=2 / b_bias=0 / direct=3 / weightb=1 / open_gop=0 / weightp=2 / keyint=240 / keyint_min=23 / scenecut=40 / intra_refresh=0 / rc=2pass / mbtree=0 / bitrate=5218 / ratetol=1.0 / qcomp=0.60 / qpmin=0 / qpmax=69 / qpstep=4 / cplxblur=20.0 / qblur=0.5 / ip_ratio=1.40 / pb_ratio=1.30 / aq=2:1.20\nLanguage                       : English\nDefault                        : Yes\nForced                         : Yes\n\nAudio #1\nID                             : 2\nFormat                         : AC-3\nFormat/Info                    : Audio Coding 3\nMode extension                 : CM (complete main)\nFormat settings, Endianness    : Big\nCodec ID                       : A_AC3\nDuration                       : 2h 8mn\nBit rate mode                  : Constant\nBit rate                       : 448 Kbps\nChannel(s)                     : 6 channels\nChannel positions              : Front: L C R, Side: L R, LFE\nSampling rate                  : 48.0 KHz\nBit depth                      : 16 bits\nCompression mode               : Lossy\nStream size                    : 413 MiB (7%)\nTitle                          : MVO [AC3 5.1@448kbps]\nLanguage                       : Russian\nDefault                        : Yes\nForced                         : Yes\n\nAudio #2\nID                             : 3\nFormat                         : AC-3\nFormat/Info                    : Audio Coding 3\nMode extension                 : CM (complete main)\nFormat settings, Endianness    : Big\nCodec ID                       : A_AC3\nDuration                       : 2h 8mn\nBit rate mode                  : Constant\nBit rate                       : 448 Kbps\nChannel(s)                     : 6 channels\nChannel positions              : Front: L C R, Side: L R, LFE\nSampling rate                  : 48.0 KHz\nBit depth                      : 16 bits\nCompression mode               : Lossy\nStream size                    : 413 MiB (7%)\nTitle                          : AVO  [AC3 5.1@448kbps]\nLanguage                       : Russian\nDefault                        : No\nForced                         : No\n\nAudio #3\nID                             : 4\nFormat                         : DTS\nFormat/Info                    : Digital Theater Systems\nCodec ID                       : A_DTS\nDuration                       : 2h 8mn\nBit rate mode                  : Constant\nBit rate                       : 755 Kbps\nChannel(s)                     : 6 channels\nChannel positions              : Front: L C R, Side: L R, LFE\nSampling rate                  : 48.0 KHz\nBit depth                      : 24 bits\nCompression mode               : Lossy\nStream size                    : 696 MiB (11%)\nTitle                          : Original\nLanguage                       : English\nDefault                        : No\nForced                         : No\n\nText #1\nID                             : 5\nFormat                         : UTF-8\nCodec ID                       : S_TEXT/UTF8\nCodec ID/Info                  : UTF-8 Plain Text\nTitle                          : Full\nLanguage                       : Russian\nDefault                        : No\nForced                         : No\n\nText #2\nID                             : 6\nFormat                         : UTF-8\nCodec ID                       : S_TEXT/UTF8\nCodec ID/Info                  : UTF-8 Plain Text\nTitle                          : Full\nLanguage                       : English\nDefault                        : No\nForced                         : No\n\nMenu\n00:00:00.000                   : en:Program Start/Opening Credits\n00:09:55.595                   : en:Getting Acquainted\n00:20:49.123                   : en:See You on the Deck\n00:33:26.171                   : en:First Lesson\n00:41:45.044                   : en:Facing Fear\n00:54:17.963                   : en:All Stop on Engines\n01:05:35.974                   : en:Contributing to the Cause\n01:17:04.870                   : en:Jfk Speaks\n01:29:37.998                   : en:Caught Cheating\n01:45:52.263                   : en:Cruising Girls\n01:51:59.588                   : en:Party Poop\n02:05:30.022                   : en:Dolphins Off the Stern","torrent":{"xt":"urn:btih:7252410de6b4545c79404e5189036555df7b9d07","amp;dn":"White+Squall+%281996%29+BDRip+720p+MediaClub+%28RUS.+ENG%29+","amp;tr":["udp%3A%2F%2Ftracker.openbittorrent.com%3A80","udp%3A%2F%2Fopen.demonii.com%3A1337","udp%3A%2F%2Ftracker.coppersurfer.tk%3A6969","udp%3A%2F%2Fexodus.desync.com%3A6969"],"infoHash":"7252410de6b4545c79404e5189036555df7b9d07","infoHashBuffer":{"type":"Buffer","data":[114,82,65,13,230,180,84,92,121,64,78,81,137,3,101,85,223,123,157,7]},"announce":[],"urlList":[]}}